<?xml version="1.0" encoding="UTF-8"?>
<svg xmlns="http://www.w3.org/2000/svg" xmlns:xlink="http://www.w3.org/1999/xlink" width="456px" height="456px" viewBox="0 0 456 455" version="1.1">
	<g id="surface1">
		<path style=" stroke:none;fill-rule:nonzero;fill:rgb(29.019608%,33.72549%,60%);fill-opacity:1;" d="M 400.773438 8.832031 L 399.238281 8.832031 C 387.605469 8.832031 378.175781 18.238281 378.175781 29.84375 L 378.175781 424.640625 C 378.175781 436.25 387.605469 445.65625 399.238281 445.65625 L 400.773438 445.65625 C 412.40625 445.65625 421.835938 436.25 421.835938 424.640625 L 421.835938 29.84375 C 421.835938 18.238281 412.40625 8.832031 400.773438 8.832031 Z M 400.773438 8.832031 "/>
		<path style=" stroke:none;fill-rule:nonzero;fill:rgb(76.862745%,37.254902%,62.745098%);fill-opacity:1;" d="M 59.066406 8.832031 L 57.53125 8.832031 C 45.898438 8.832031 36.46875 18.238281 36.46875 29.84375 L 36.46875 424.640625 C 36.46875 436.25 45.902344 445.65625 57.53125 445.65625 L 59.066406 445.65625 C 70.699219 445.65625 80.128906 436.25 80.128906 424.640625 L 80.128906 29.84375 C 80.128906 18.238281 70.699219 8.832031 59.066406 8.832031 Z M 59.066406 8.832031 "/>
		<path style=" stroke:none;fill-rule:nonzero;fill:rgb(38.431373%,46.666667%,72.941176%);fill-opacity:1;" d="M 400.542969 8.832031 L 57.53125 8.832031 C 45.898438 8.832031 36.46875 18.238281 36.46875 29.84375 L 36.46875 31.347656 C 36.46875 42.953125 45.902344 52.363281 57.53125 52.363281 L 400.542969 52.363281 C 412.175781 52.363281 421.605469 42.953125 421.605469 31.347656 L 421.605469 29.84375 C 421.605469 18.238281 412.175781 8.832031 400.542969 8.832031 Z M 400.542969 8.832031 "/>
		<path style=" stroke:none;fill-rule:nonzero;fill:rgb(76.862745%,37.254902%,62.745098%);fill-opacity:1;" d="M 400.542969 402.125 L 57.53125 402.125 C 45.898438 402.125 36.46875 411.535156 36.46875 423.140625 L 36.46875 424.640625 C 36.46875 436.25 45.902344 445.65625 57.53125 445.65625 L 400.542969 445.65625 C 412.175781 445.65625 421.605469 436.25 421.605469 424.640625 L 421.605469 423.140625 C 421.605469 411.535156 412.175781 402.125 400.542969 402.125 Z M 400.542969 402.125 "/>
		<path style=" stroke:none;fill-rule:nonzero;fill:rgb(89.803922%,34.901961%,30.980392%);fill-opacity:1;" d="M 319.71875 241.34375 L 241.378906 241.34375 C 229.75 241.34375 220.316406 250.75 220.316406 262.359375 L 220.316406 264.011719 C 220.316406 275.621094 229.75 285.027344 241.378906 285.027344 L 319.71875 285.027344 C 331.347656 285.027344 340.78125 275.621094 340.78125 264.011719 L 340.78125 262.359375 C 340.78125 250.75 331.347656 241.34375 319.71875 241.34375 Z M 319.71875 241.34375 "/>
		<path style=" stroke:none;fill-rule:nonzero;fill:rgb(94.117647%,81.568627%,26.27451%);fill-opacity:1;" d="M 306.941406 88.355469 L 228.601562 88.355469 C 216.972656 88.355469 207.539062 97.765625 207.539062 109.371094 L 207.539062 111.023438 C 207.539062 122.632812 216.972656 132.042969 228.601562 132.042969 L 306.9375 132.042969 C 318.570312 132.042969 328 122.632812 328 111.023438 L 328 109.371094 C 328 97.765625 318.570312 88.355469 306.941406 88.355469 Z M 306.941406 88.355469 "/>
		<path style=" stroke:none;fill-rule:nonzero;fill:rgb(89.803922%,34.901961%,30.980392%);fill-opacity:1;" d="M 337.453125 156.886719 L 116.300781 156.886719 C 104.671875 156.886719 95.242188 166.292969 95.242188 177.902344 L 95.242188 179.402344 C 95.242188 191.007812 104.671875 200.417969 116.300781 200.417969 L 337.453125 200.417969 C 349.085938 200.417969 358.515625 191.007812 358.515625 179.402344 L 358.515625 177.902344 C 358.515625 166.292969 349.085938 156.886719 337.453125 156.886719 Z M 337.453125 156.886719 "/>
		<path style=" stroke:none;fill-rule:nonzero;fill:rgb(38.431373%,46.666667%,72.941176%);fill-opacity:1;" d="M 339.613281 322.6875 L 118.460938 322.6875 C 106.828125 322.6875 97.402344 332.097656 97.402344 343.707031 L 97.402344 345.207031 C 97.402344 356.8125 106.828125 366.222656 118.460938 366.222656 L 339.613281 366.222656 C 351.246094 366.222656 360.671875 356.8125 360.671875 345.207031 L 360.671875 343.707031 C 360.671875 332.097656 351.246094 322.6875 339.613281 322.6875 Z M 339.613281 322.6875 "/>
		<path style=" stroke:none;fill-rule:nonzero;fill:rgb(95.294118%,60.392157%,16.862745%);fill-opacity:1;" d="M 158.414062 241.421875 L 125.316406 241.421875 C 113.683594 241.421875 104.253906 250.828125 104.253906 262.433594 L 104.253906 263.933594 C 104.253906 275.539062 113.683594 284.949219 125.316406 284.949219 L 158.414062 284.949219 C 170.046875 284.949219 179.472656 275.539062 179.472656 263.933594 L 179.472656 262.433594 C 179.472656 250.828125 170.046875 241.421875 158.414062 241.421875 Z M 158.414062 241.421875 "/>
		<path style=" stroke:none;fill-rule:nonzero;fill:rgb(95.294118%,60.392157%,16.862745%);fill-opacity:1;" d="M 127.296875 110.199219 C 127.296875 122.21875 137.066406 131.964844 149.113281 131.964844 C 161.160156 131.964844 170.925781 122.21875 170.925781 110.199219 C 170.925781 98.175781 161.160156 88.433594 149.113281 88.433594 C 137.066406 88.433594 127.296875 98.175781 127.296875 110.199219 Z M 127.296875 110.199219 "/>
	</g>
</svg>
